<svg width="63" height="58" viewBox="0 0 63 58" fill="none" xmlns="http://www.w3.org/2000/svg">
<g filter="url(#filter0_d_177_595)">
<path d="M53.5 0H9.5C6.46675 0 4 2.49167 4 5.55556V44.4444C4 47.5083 6.46675 50 9.5 50H53.5C56.5333 50 59 47.5083 59 44.4444V5.55556C59 2.49167 56.5333 0 53.5 0ZM53.5027 16.6667C53.5 16.6667 53.5 16.6667 53.5027 16.6667H52.224L44.8897 5.55556H53.5L53.5027 16.6667ZM41.125 33.3333L26 41.6667V25L41.125 33.3333ZM38.474 16.6667L31.1398 5.55556H38.2788L45.613 16.6667H38.474ZM31.863 16.6667H24.724L17.3897 5.55556H24.5288L31.863 16.6667ZM9.5 5.55556H10.7788L18.113 16.6667H9.5V5.55556Z" fill="#C4302B"/>
</g>
<defs>
<filter id="filter0_d_177_595" x="0" y="0" width="63" height="58" filterUnits="userSpaceOnUse" color-interpolation-filters="sRGB">
<feFlood flood-opacity="0" result="BackgroundImageFix"/>
<feColorMatrix in="SourceAlpha" type="matrix" values="0 0 0 0 0 0 0 0 0 0 0 0 0 0 0 0 0 0 127 0" result="hardAlpha"/>
<feOffset dy="4"/>
<feGaussianBlur stdDeviation="2"/>
<feComposite in2="hardAlpha" operator="out"/>
<feColorMatrix type="matrix" values="0 0 0 0 0 0 0 0 0 0 0 0 0 0 0 0 0 0 0.25 0"/>
<feBlend mode="normal" in2="BackgroundImageFix" result="effect1_dropShadow_177_595"/>
<feBlend mode="normal" in="SourceGraphic" in2="effect1_dropShadow_177_595" result="shape"/>
</filter>
</defs>
</svg>
