<svg width="24" height="24" viewBox="0 0 24 24" fill="none" xmlns="http://www.w3.org/2000/svg">
<path d="M23.794 19.8166L19.739 15.7615L21.7277 13.7728C21.9 13.6005 21.9709 13.3512 21.9148 13.1141C21.8588 12.8769 21.6841 12.6856 21.4529 12.6086L9.5205 8.63107C9.26789 8.54684 8.98927 8.61261 8.80097 8.80095C8.61263 8.98929 8.54686 9.26782 8.6311 9.52048L12.6086 21.4529C12.6857 21.6841 12.8769 21.8589 13.1141 21.9149C13.3512 21.971 13.6005 21.9001 13.7728 21.7277L15.7616 19.739L19.8166 23.794C19.9539 23.9313 20.1339 24 20.3138 24C20.4937 24 20.6737 23.9314 20.8109 23.794L23.7941 20.8109C24.0687 20.5363 24.0687 20.0912 23.794 19.8166ZM20.3137 22.3025L16.2587 18.2475C15.9841 17.9729 15.5389 17.9729 15.2643 18.2475L13.5829 19.9289L10.4099 10.4099L19.9289 13.5829L18.2474 15.2643C17.9731 15.5387 17.9729 15.9842 18.2474 16.2587L22.3025 20.3138L20.3137 22.3025Z" fill="#B57EDC"/>
<path d="M9.14061 5.62499C9.52892 5.62499 9.84374 5.31018 9.84374 4.92187V0.703124C9.84374 0.314812 9.52892 0 9.14061 0C8.7523 0 8.43749 0.314812 8.43749 0.703124V4.92187C8.43749 5.31018 8.7523 5.62499 9.14061 5.62499Z" fill="#B57EDC"/>
<path d="M3.67159 2.67722C3.39704 2.40263 2.95182 2.40263 2.67723 2.67722C2.40263 2.95182 2.40263 3.39699 2.67723 3.67158L5.66035 6.6547C5.9349 6.92929 6.38016 6.92929 6.65471 6.6547C6.9293 6.38011 6.9293 5.93494 6.65471 5.66034L3.67159 2.67722Z" fill="#B57EDC"/>
<path d="M5.66035 11.6265L2.67723 14.6096C2.40263 14.8842 2.40263 15.3294 2.67723 15.604C2.95177 15.8786 3.39704 15.8786 3.67159 15.604L6.65471 12.6209C6.9293 12.3463 6.9293 11.9011 6.65471 11.6265C6.38011 11.3519 5.9349 11.3519 5.66035 11.6265Z" fill="#B57EDC"/>
<path d="M12.6209 6.6547L15.6041 3.67158C15.8787 3.39699 15.8787 2.95182 15.6041 2.67722C15.3295 2.40263 14.8843 2.40263 14.6097 2.67722L11.6266 5.66034C11.352 5.93494 11.352 6.38011 11.6266 6.6547C11.9011 6.92929 12.3464 6.92929 12.6209 6.6547Z" fill="#B57EDC"/>
<path d="M5.62499 9.14061C5.62499 8.7523 5.31018 8.43749 4.92187 8.43749H0.703124C0.314812 8.43749 0 8.7523 0 9.14061C0 9.52892 0.314812 9.84373 0.703124 9.84373H4.92187C5.31018 9.84373 5.62499 9.52892 5.62499 9.14061Z" fill="#B57EDC"/>
</svg>
