<svg width="60" height="60" viewBox="0 0 60 60" fill="none" xmlns="http://www.w3.org/2000/svg">
   <rect width="60" height="60" rx="5" fill="#F3974A" />
   <path
	  d="M43.5 22.745C43.5 24.9107 43.4153 26.4754 43.0805 27.9538C42.7471 29.4261 42.1595 30.8387 41.1211 32.6838C39.917 34.8232 38.1357 37.4974 35.4933 41.4643C33.6267 44.2664 31.3305 47.7136 28.5045 52.0731C25.3098 47.0396 22.7814 43.212 20.7844 40.1889L20.653 39.99C18.5473 36.8022 17.0529 34.5345 15.9907 32.6804C14.932 30.8327 14.3166 29.4192 13.9604 27.9466C13.6033 26.4701 13.5 24.9067 13.5 22.745C13.5 14.318 20.2231 7.5 28.5 7.5C36.7769 7.5 43.5 14.318 43.5 22.745ZM20.4656 22.745C20.4656 27.2406 24.0554 30.8984 28.5 30.8984C32.9446 30.8984 36.5343 27.2406 36.5343 22.745C36.5343 18.2494 32.9446 14.5915 28.5 14.5915C24.0554 14.5915 20.4656 18.2494 20.4656 22.745Z"
	  fill="white" stroke="white" />
</svg>