<svg width="60" height="60" viewBox="0 0 60 60" fill="none" xmlns="http://www.w3.org/2000/svg">
   <rect width="60" height="60" rx="5" fill="#F3974A" />
   <circle cx="30" cy="17" r="6.5" fill="white" stroke="white" />
   <mask id="path-3-inside-1_177_473" fill="white">
	  <path
		 d="M40 33C40 30.8783 38.9464 28.8434 37.0711 27.3431C35.1957 25.8429 32.6522 25 30 25C27.3478 25 24.8043 25.8429 22.9289 27.3431C21.0536 28.8434 20 30.8783 20 33L30 33H40Z" />
   </mask>
   <path
	  d="M40 33C40 30.8783 38.9464 28.8434 37.0711 27.3431C35.1957 25.8429 32.6522 25 30 25C27.3478 25 24.8043 25.8429 22.9289 27.3431C21.0536 28.8434 20 30.8783 20 33L30 33H40Z"
	  stroke="white" stroke-width="6" mask="url(#path-3-inside-1_177_473)" />
   <line x1="13" y1="39.5" x2="47" y2="39.5" stroke="white" stroke-width="3" />
   <line x1="13" y1="45.5" x2="47" y2="45.5" stroke="white" stroke-width="3" />
   <line x1="13" y1="51.5" x2="33" y2="51.5" stroke="white" stroke-width="3" />
</svg>